<svg width="24" height="24" viewBox="0 0 24 24" fill="none" xmlns="http://www.w3.org/2000/svg">
<path d="M17.5623 10.1496L17.5622 10.1497C18.1978 10.4328 18.7436 10.8864 19.1374 11.4605C19.5311 12.0345 19.7582 12.7062 19.7935 13.4013L19.7935 13.4021C19.8281 14.1136 19.659 14.8202 19.3062 15.4391C18.9535 16.0578 18.4316 16.5631 17.8019 16.8958L17.5623 10.1496ZM17.5623 10.1496L17.554 10.1461L17.2047 10.0005L17.7906 9.68891C17.791 9.68872 17.7913 9.68853 17.7917 9.68834C18.228 9.4597 18.6147 9.14703 18.9296 8.76833C19.2448 8.38932 19.4819 7.95166 19.6271 7.48059C19.7723 7.00953 19.8229 6.51437 19.7759 6.02367C19.7289 5.53337 19.5853 5.05722 19.3536 4.62261C18.8877 3.74271 18.0913 3.08389 17.1397 2.79106C16.1881 2.49823 15.1591 2.59537 14.2791 3.06112L14.279 3.06121L6.6305 7.11455C6.63037 7.11462 6.63023 7.11469 6.6301 7.11476C5.99918 7.44682 5.4759 7.95172 5.1215 8.57037C4.76703 9.18915 4.59618 9.89611 4.62897 10.6085L4.62902 10.6096C4.66305 11.3038 4.88852 11.975 5.28046 12.5489C5.6724 13.1229 6.21553 13.5772 6.84971 13.8615L6.86678 13.8692L6.88454 13.8751C6.87796 13.8729 6.89612 13.8804 6.94112 13.899C6.9658 13.9092 6.99856 13.9227 7.03974 13.9398C7.08912 13.9603 7.14588 13.9839 7.2064 14.0091L6.62999 14.3135L6.62998 14.3135L6.6271 14.315C6.03062 14.6368 5.53226 15.1138 5.18479 15.6957C4.83733 16.2775 4.65369 16.9425 4.65332 17.6202L4.65333 17.6222C4.65815 18.6162 5.05519 19.568 5.7581 20.2708C6.46102 20.9736 7.41297 21.3704 8.40692 21.375H8.40866C9.01261 21.375 9.60592 21.23 10.1416 20.9518L10.1442 20.9504L17.8015 16.896L17.5623 10.1496ZM10.784 10.2409L14.1134 12.0057L10.784 13.7693V10.2409Z" stroke="white" stroke-width="0.75"/>
<path d="M10.7112 13.8749V10.1248L14.4613 11.9998L10.7112 13.8749Z" fill="white"/>
</svg>
